# Blender v2.80 (sub 74) OBJ File: ''
# www.blender.org
mtllib sphere.mtl
o Cube_Cube.001
v -0.699536 -0.699536 0.699536
v -0.699536 0.699536 0.699536
v -0.699536 -0.699536 -0.699536
v -0.699536 0.699536 -0.699536
v 0.699536 -0.699536 0.699536
v 0.699536 0.699536 0.699536
v 0.699536 -0.699536 -0.699536
v 0.699536 0.699536 -0.699536
v -0.839888 -0.839888 0.000000
v -0.839888 0.000000 0.839888
v -0.839888 0.839888 -0.000000
v -0.839888 0.000000 -0.839888
v 0.000000 -0.839888 -0.839888
v 0.000000 0.839888 -0.839888
v 0.839888 0.000000 -0.839888
v 0.839888 -0.839888 0.000000
v 0.839888 0.839888 0.000000
v 0.839888 0.000000 0.839888
v 0.000000 -0.839888 0.839888
v -0.000000 0.839888 0.839888
v 0.000000 1.165523 -0.000000
v 0.000000 -1.165523 -0.000000
v 0.000000 0.000000 1.165523
v 1.165523 0.000000 -0.000000
v -0.000000 0.000000 -1.165523
v -1.165523 0.000000 0.000000
v -0.795744 -0.795744 0.418637
v -0.795744 0.418637 0.795744
v -0.795744 0.795744 -0.418637
v -0.795744 -0.418637 -0.795744
v -0.418637 -0.795744 -0.795744
v 0.418637 0.795744 -0.795744
v 0.795744 -0.418637 -0.795744
v 0.795744 -0.795744 -0.418637
v 0.795744 0.795744 0.418637
v 0.795744 -0.418637 0.795744
v 0.418637 -0.795744 0.795744
v -0.418637 0.795744 0.795744
v -0.795744 -0.795744 -0.418637
v -0.795744 -0.418637 0.795744
v -0.795744 0.795744 0.418637
v -0.795744 0.418637 -0.795744
v 0.418637 -0.795744 -0.795744
v -0.418637 0.795744 -0.795744
v 0.795744 0.418637 -0.795744
v 0.795744 -0.795744 0.418637
v 0.795744 0.795744 -0.418637
v 0.795744 0.418637 0.795744
v -0.418637 -0.795744 0.795744
v 0.418637 0.795744 0.795744
v -0.000000 1.082589 0.457598
v 0.000000 1.082589 -0.457598
v 0.457598 1.082589 -0.000000
v -0.457598 1.082589 0.000000
v 0.000000 -1.082589 0.457598
v 0.000000 -1.082589 -0.457598
v -0.457598 -1.082589 -0.000000
v 0.457598 -1.082589 0.000000
v -0.457598 0.000000 1.082589
v 0.457598 0.000000 1.082589
v 0.000000 -0.457598 1.082589
v 0.000000 0.457598 1.082589
v 1.082589 0.000000 0.457598
v 1.082589 0.000000 -0.457598
v 1.082589 -0.457598 -0.000000
v 1.082589 0.457598 0.000000
v 0.457598 0.000000 -1.082589
v -0.457598 0.000000 -1.082589
v -0.000000 -0.457598 -1.082589
v 0.000000 0.457598 -1.082589
v -1.082589 0.000000 -0.457598
v -1.082589 0.000000 0.457598
v -1.082589 -0.457598 0.000000
v -1.082589 0.457598 0.000000
v -1.010792 0.440117 -0.440117
v 0.440117 0.440117 -1.010792
v 1.010792 0.440117 0.440117
v -0.440117 0.440117 1.010792
v 0.440117 -1.010792 0.440117
v -0.440117 1.010792 0.440117
v 0.440118 1.010792 0.440118
v 0.440117 1.010792 -0.440117
v -0.440118 1.010792 -0.440117
v -0.440118 -1.010792 0.440118
v -0.440117 -1.010792 -0.440117
v 0.440118 -1.010792 -0.440117
v -0.440118 -0.440118 1.010792
v 0.440117 -0.440117 1.010792
v 0.440117 0.440118 1.010792
v 1.010792 -0.440118 0.440118
v 1.010792 -0.440117 -0.440117
v 1.010792 0.440118 -0.440117
v 0.440118 -0.440118 -1.010792
v -0.440117 -0.440117 -1.010792
v -0.440117 0.440118 -1.010792
v -1.010792 -0.440118 -0.440118
v -1.010792 -0.440117 0.440117
v -1.010792 0.440118 0.440117
vt 0.500000 0.125000
vt 0.562500 0.187500
vt 0.500000 0.187500
vt 0.562500 0.125000
vt 0.625000 0.187500
vt 0.625000 0.250000
vt 0.562500 0.250000
vt 0.500000 0.250000
vt 0.500000 0.375000
vt 0.562934 0.437066
vt 0.500000 0.437500
vt 0.562500 0.375000
vt 0.627604 0.434896
vt 0.645833 0.479167
vt 0.564236 0.498264
vt 0.500000 0.500000
vt 0.500000 0.625000
vt 0.562934 0.687934
vt 0.500000 0.687500
vt 0.562500 0.625000
vt 0.626736 0.689236
vt 0.645833 0.770833
vt 0.564236 0.751736
vt 0.500000 0.750000
vt 0.500000 0.875000
vt 0.562500 0.937500
vt 0.500000 0.937500
vt 0.562500 0.875000
vt 0.625000 0.937500
vt 0.625000 1.000000
vt 0.562500 1.000000
vt 0.500000 1.000000
vt 0.250000 0.625000
vt 0.312066 0.687934
vt 0.250000 0.687500
vt 0.312500 0.625000
vt 0.373264 0.689236
vt 0.354167 0.770833
vt 0.309896 0.752604
vt 0.250000 0.750000
vt 0.750000 0.625000
vt 0.812500 0.687500
vt 0.750000 0.687500
vt 0.812500 0.625000
vt 0.875000 0.687500
vt 0.875000 0.750000
vt 0.812500 0.750000
vt 0.750000 0.750000
vt 0.687500 0.625000
vt 0.625000 0.625000
vt 0.687934 0.687934
vt 0.690104 0.752604
vt 0.687934 0.562066
vt 0.626736 0.560764
vt 0.690104 0.497396
vt 0.750000 0.562500
vt 0.812500 0.500000
vt 0.750000 0.500000
vt 0.875000 0.500000
vt 0.812500 0.562500
vt 0.875000 0.562500
vt 0.187500 0.625000
vt 0.125000 0.687500
vt 0.125000 0.625000
vt 0.187500 0.687500
vt 0.187500 0.750000
vt 0.125000 0.750000
vt 0.125000 0.500000
vt 0.187500 0.562500
vt 0.125000 0.562500
vt 0.187500 0.500000
vt 0.250000 0.562500
vt 0.309896 0.497396
vt 0.250000 0.500000
vt 0.354167 0.479167
vt 0.312066 0.562066
vt 0.373264 0.560764
vt 0.437500 0.875000
vt 0.375000 0.937500
vt 0.375000 0.875000
vt 0.437500 0.937500
vt 0.437500 1.000000
vt 0.375000 1.000000
vt 0.437066 0.812934
vt 0.372396 0.815104
vt 0.435764 0.751736
vt 0.500000 0.812500
vt 0.562934 0.812934
vt 0.627604 0.815104
vt 0.437500 0.625000
vt 0.375000 0.625000
vt 0.437066 0.687934
vt 0.437066 0.562066
vt 0.435764 0.498264
vt 0.500000 0.562500
vt 0.562934 0.562066
vt 0.437500 0.375000
vt 0.372396 0.434896
vt 0.375000 0.375000
vt 0.437066 0.437066
vt 0.375000 0.250000
vt 0.437500 0.312500
vt 0.375000 0.312500
vt 0.437500 0.250000
vt 0.500000 0.312500
vt 0.562500 0.312500
vt 0.625000 0.312500
vt 0.437500 0.125000
vt 0.375000 0.187500
vt 0.375000 0.125000
vt 0.437500 0.187500
vt 0.375000 0.000000
vt 0.437500 0.062500
vt 0.375000 0.062500
vt 0.437500 0.000000
vt 0.500000 0.062500
vt 0.562500 0.000000
vt 0.500000 0.000000
vt 0.625000 0.000000
vt 0.562500 0.062500
vt 0.625000 0.062500
vt 0.625000 0.125000
vt 0.625000 0.375000
vt 0.625000 0.875000
vt 0.875000 0.625000
vn -1.0000 -0.0000 -0.0000
vn -0.8754 0.3418 -0.3418
vn -0.9311 0.0000 -0.3647
vn -0.9318 0.3630 0.0046
vn -0.6735 0.6734 -0.3050
vn -0.5774 0.5774 -0.5774
vn -0.6735 0.3050 -0.6734
vn -0.7071 -0.0000 -0.7071
vn 0.0000 -0.0000 -1.0000
vn 0.3418 0.3418 -0.8754
vn 0.3647 -0.0000 -0.9311
vn -0.0046 0.3630 -0.9318
vn 0.3050 0.6734 -0.6735
vn 0.5774 0.5774 -0.5774
vn 0.6734 0.3050 -0.6735
vn 0.7071 -0.0000 -0.7071
vn 1.0000 -0.0000 0.0000
vn 0.8754 0.3418 0.3418
vn 0.9311 -0.0000 0.3647
vn 0.9318 0.3630 -0.0046
vn 0.6735 0.6734 0.3050
vn 0.5774 0.5774 0.5774
vn 0.6735 0.3050 0.6734
vn 0.7071 -0.0000 0.7071
vn -0.0000 -0.0000 1.0000
vn -0.3418 0.3418 0.8754
vn -0.3647 -0.0000 0.9311
vn 0.0046 0.3630 0.9318
vn -0.3050 0.6734 0.6735
vn -0.5774 0.5774 0.5774
vn -0.6734 0.3050 0.6735
vn -0.7071 -0.0000 0.7071
vn -0.0000 -1.0000 0.0000
vn 0.3418 -0.8754 0.3418
vn 0.0000 -0.9311 0.3647
vn 0.3630 -0.9318 -0.0046
vn 0.6734 -0.6735 0.3050
vn 0.5774 -0.5774 0.5774
vn 0.3050 -0.6735 0.6734
vn -0.0000 -0.7071 0.7071
vn 0.0000 1.0000 0.0000
vn -0.3418 0.8754 0.3418
vn 0.0000 0.9311 0.3647
vn -0.3630 0.9318 -0.0046
vn -0.6734 0.6735 0.3050
vn 0.0000 0.7071 0.7071
vn 0.3630 0.9318 -0.0046
vn 0.7071 0.7071 0.0000
vn 0.3429 0.8840 0.3178
vn 0.3050 0.6735 0.6734
vn 0.3418 0.8754 -0.3418
vn 0.6734 0.6734 -0.3050
vn -0.0000 0.9311 -0.3647
vn -0.2992 0.6841 -0.6652
vn -0.0000 0.7071 -0.7071
vn -0.3429 0.8840 -0.3178
vn -0.3630 -0.9318 -0.0046
vn -0.6734 -0.6734 0.3050
vn -0.7071 -0.7071 0.0000
vn -0.3429 -0.8840 0.3178
vn -0.3050 -0.6735 0.6734
vn -0.5774 -0.5774 0.5774
vn -0.5774 -0.5774 -0.5774
vn -0.3418 -0.8754 -0.3418
vn -0.6734 -0.6734 -0.3050
vn -0.2992 -0.6841 -0.6652
vn 0.0000 -0.9311 -0.3647
vn 0.2992 -0.6841 -0.6652
vn -0.0000 -0.7071 -0.7071
vn 0.5774 -0.5774 -0.5774
vn 0.3429 -0.8840 -0.3178
vn 0.6652 -0.6841 -0.2992
vn 0.0046 -0.3630 0.9318
vn -0.3178 -0.3429 0.8840
vn -0.6734 -0.3050 0.6735
vn 0.3418 -0.3418 0.8754
vn 0.6652 -0.2992 0.6841
vn 0.3647 0.0000 0.9311
vn 0.3178 0.3429 0.8840
vn 0.9318 -0.3630 -0.0046
vn 0.7071 -0.7071 0.0000
vn 0.8840 -0.3429 0.3178
vn 0.8754 -0.3418 -0.3418
vn 0.6841 -0.2992 -0.6652
vn 0.9311 0.0000 -0.3647
vn 0.8840 0.3429 -0.3178
vn -0.0046 -0.3630 -0.9318
vn 0.3178 -0.3429 -0.8840
vn -0.3418 -0.3418 -0.8754
vn -0.6652 -0.2992 -0.6841
vn -0.3647 0.0000 -0.9311
vn -0.3178 0.3429 -0.8840
vn -0.9318 -0.3630 0.0046
vn -0.8840 -0.3429 -0.3178
vn -0.8754 -0.3418 0.3418
vn -0.9311 0.0000 0.3647
vn -0.8840 0.3429 0.3178
vn -0.7071 0.7071 0.0000
usemtl test
s 1
f 26/1/1 75/2/2 71/3/3
f 74/4/4 29/5/5 75/2/2
f 75/2/2 4/6/6 42/7/7
f 71/3/3 42/7/7 12/8/8
f 25/9/9 76/10/10 67/11/11
f 70/12/12 32/13/13 76/10/10
f 76/10/10 8/14/14 45/15/15
f 67/11/11 45/15/15 15/16/16
f 24/17/17 77/18/18 63/19/19
f 66/20/20 35/21/21 77/18/18
f 77/18/18 6/22/22 48/23/23
f 63/19/19 48/23/23 18/24/24
f 23/25/25 78/26/26 59/27/27
f 62/28/28 38/29/29 78/26/26
f 78/26/26 2/30/30 28/31/31
f 59/27/27 28/31/31 10/32/32
f 22/33/33 79/34/34 55/35/35
f 58/36/36 46/37/37 79/34/34
f 79/34/34 5/38/38 37/39/39
f 55/35/35 37/39/39 19/40/40
f 21/41/41 80/42/42 51/43/43
f 54/44/44 41/45/45 80/42/42
f 80/42/42 2/46/30 38/47/29
f 51/43/43 38/47/29 20/48/46
f 53/49/47 35/21/21 17/50/48
f 21/41/41 81/51/49 53/49/47
f 51/43/43 50/52/50 81/51/49
f 81/51/49 6/22/22 35/21/21
f 8/14/14 82/53/51 47/54/52
f 32/55/13 52/56/53 82/53/51
f 82/53/51 21/41/41 53/49/47
f 47/54/52 53/49/47 17/50/48
f 44/57/54 52/56/53 14/58/55
f 4/59/6 83/60/56 44/57/54
f 29/61/5 54/44/44 83/60/56
f 83/60/56 21/41/41 52/56/53
f 57/62/57 27/63/58 9/64/59
f 22/33/33 84/65/60 57/62/57
f 55/35/35 49/66/61 84/65/60
f 84/65/60 1/67/62 27/63/58
f 3/68/63 85/69/64 39/70/65
f 31/71/66 56/72/67 85/69/64
f 85/69/64 22/33/33 57/62/57
f 39/70/65 57/62/57 9/64/59
f 43/73/68 56/72/67 13/74/69
f 7/75/70 86/76/71 43/73/68
f 34/77/72 58/36/36 86/76/71
f 86/76/71 22/33/33 56/72/67
f 61/78/73 49/79/61 19/80/40
f 23/25/25 87/81/74 61/78/73
f 59/27/27 40/82/75 87/81/74
f 87/81/74 1/83/62 49/79/61
f 5/38/38 88/84/76 37/85/39
f 36/86/77 60/87/78 88/84/76
f 88/84/76 23/25/25 61/78/73
f 37/85/39 61/78/73 19/80/40
f 48/23/23 60/87/78 18/24/24
f 6/22/22 89/88/79 48/23/23
f 50/89/50 62/28/28 89/88/79
f 89/88/79 23/25/25 60/87/78
f 65/90/80 46/37/37 16/91/81
f 24/17/17 90/92/82 65/90/80
f 63/19/19 36/86/77 90/92/82
f 90/92/82 5/38/38 46/37/37
f 7/75/70 91/93/83 34/77/72
f 33/94/84 64/95/85 91/93/83
f 91/93/83 24/17/17 65/90/80
f 34/77/72 65/90/80 16/91/81
f 45/15/15 64/95/85 15/16/16
f 8/14/14 92/96/86 45/15/15
f 47/54/52 66/20/20 92/96/86
f 92/96/86 24/17/17 64/95/85
f 69/97/87 43/98/68 13/99/69
f 25/9/9 93/100/88 69/97/87
f 67/11/11 33/94/84 93/100/88
f 93/100/88 7/75/70 43/98/68
f 3/101/63 94/102/89 31/103/66
f 30/104/90 68/105/91 94/102/89
f 94/102/89 25/9/9 69/97/87
f 31/103/66 69/97/87 13/99/69
f 42/7/7 68/105/91 12/8/8
f 4/6/6 95/106/92 42/7/7
f 44/107/54 70/12/12 95/106/92
f 95/106/92 25/9/9 68/105/91
f 73/108/93 39/109/65 9/110/59
f 26/1/1 96/111/94 73/108/93
f 71/3/3 30/104/90 96/111/94
f 96/111/94 3/101/63 39/109/65
f 1/112/62 97/113/95 27/114/58
f 40/115/75 72/116/96 97/113/95
f 97/113/95 26/1/1 73/108/93
f 27/114/58 73/108/93 9/110/59
f 28/117/31 72/116/96 10/118/32
f 2/119/30 98/120/97 28/117/31
f 41/121/45 74/4/4 98/120/97
f 98/120/97 26/1/1 72/116/96
f 26/1/1 74/4/4 75/2/2
f 74/4/4 11/122/98 29/5/5
f 75/2/2 29/5/5 4/6/6
f 71/3/3 75/2/2 42/7/7
f 25/9/9 70/12/12 76/10/10
f 70/12/12 14/123/55 32/13/13
f 76/10/10 32/13/13 8/14/14
f 67/11/11 76/10/10 45/15/15
f 24/17/17 66/20/20 77/18/18
f 66/20/20 17/50/48 35/21/21
f 77/18/18 35/21/21 6/22/22
f 63/19/19 77/18/18 48/23/23
f 23/25/25 62/28/28 78/26/26
f 62/28/28 20/124/46 38/29/29
f 78/26/26 38/29/29 2/30/30
f 59/27/27 78/26/26 28/31/31
f 22/33/33 58/36/36 79/34/34
f 58/36/36 16/91/81 46/37/37
f 79/34/34 46/37/37 5/38/38
f 55/35/35 79/34/34 37/39/39
f 21/41/41 54/44/44 80/42/42
f 54/44/44 11/125/98 41/45/45
f 80/42/42 41/45/45 2/46/30
f 51/43/43 80/42/42 38/47/29
f 53/49/47 81/51/49 35/21/21
f 21/41/41 51/43/43 81/51/49
f 51/43/43 20/48/46 50/52/50
f 81/51/49 50/52/50 6/22/22
f 8/14/14 32/55/13 82/53/51
f 32/55/13 14/58/55 52/56/53
f 82/53/51 52/56/53 21/41/41
f 47/54/52 82/53/51 53/49/47
f 44/57/54 83/60/56 52/56/53
f 4/59/6 29/61/5 83/60/56
f 29/61/5 11/125/98 54/44/44
f 83/60/56 54/44/44 21/41/41
f 57/62/57 84/65/60 27/63/58
f 22/33/33 55/35/35 84/65/60
f 55/35/35 19/40/40 49/66/61
f 84/65/60 49/66/61 1/67/62
f 3/68/63 31/71/66 85/69/64
f 31/71/66 13/74/69 56/72/67
f 85/69/64 56/72/67 22/33/33
f 39/70/65 85/69/64 57/62/57
f 43/73/68 86/76/71 56/72/67
f 7/75/70 34/77/72 86/76/71
f 34/77/72 16/91/81 58/36/36
f 86/76/71 58/36/36 22/33/33
f 61/78/73 87/81/74 49/79/61
f 23/25/25 59/27/27 87/81/74
f 59/27/27 10/32/32 40/82/75
f 87/81/74 40/82/75 1/83/62
f 5/38/38 36/86/77 88/84/76
f 36/86/77 18/24/24 60/87/78
f 88/84/76 60/87/78 23/25/25
f 37/85/39 88/84/76 61/78/73
f 48/23/23 89/88/79 60/87/78
f 6/22/22 50/89/50 89/88/79
f 50/89/50 20/124/46 62/28/28
f 89/88/79 62/28/28 23/25/25
f 65/90/80 90/92/82 46/37/37
f 24/17/17 63/19/19 90/92/82
f 63/19/19 18/24/24 36/86/77
f 90/92/82 36/86/77 5/38/38
f 7/75/70 33/94/84 91/93/83
f 33/94/84 15/16/16 64/95/85
f 91/93/83 64/95/85 24/17/17
f 34/77/72 91/93/83 65/90/80
f 45/15/15 92/96/86 64/95/85
f 8/14/14 47/54/52 92/96/86
f 47/54/52 17/50/48 66/20/20
f 92/96/86 66/20/20 24/17/17
f 69/97/87 93/100/88 43/98/68
f 25/9/9 67/11/11 93/100/88
f 67/11/11 15/16/16 33/94/84
f 93/100/88 33/94/84 7/75/70
f 3/101/63 30/104/90 94/102/89
f 30/104/90 12/8/8 68/105/91
f 94/102/89 68/105/91 25/9/9
f 31/103/66 94/102/89 69/97/87
f 42/7/7 95/106/92 68/105/91
f 4/6/6 44/107/54 95/106/92
f 44/107/54 14/123/55 70/12/12
f 95/106/92 70/12/12 25/9/9
f 73/108/93 96/111/94 39/109/65
f 26/1/1 71/3/3 96/111/94
f 71/3/3 12/8/8 30/104/90
f 96/111/94 30/104/90 3/101/63
f 1/112/62 40/115/75 97/113/95
f 40/115/75 10/118/32 72/116/96
f 97/113/95 72/116/96 26/1/1
f 27/114/58 97/113/95 73/108/93
f 28/117/31 98/120/97 72/116/96
f 2/119/30 41/121/45 98/120/97
f 41/121/45 11/122/98 74/4/4
f 98/120/97 74/4/4 26/1/1
